<mxfile host="app.diagrams.net" agent="Mozilla/5.0 (Windows NT 10.0; Win64; x64) AppleWebKit/537.36 (KHTML, like Gecko) Chrome/140.0.0.0 Safari/537.36" version="28.2.5">
  <diagram name="Page-1" id="lIvKb6KPCnKns3NZLApF">
    <mxGraphModel dx="850" dy="537" grid="1" gridSize="10" guides="1" tooltips="1" connect="1" arrows="1" fold="1" page="1" pageScale="1" pageWidth="850" pageHeight="1100" math="0" shadow="0">
      <root>
        <mxCell id="0" />
        <mxCell id="1" parent="0" />
        <mxCell id="gMwRSMizLsDUqZksZM7D-5" style="edgeStyle=orthogonalEdgeStyle;rounded=0;orthogonalLoop=1;jettySize=auto;html=1;entryX=0;entryY=0.5;entryDx=0;entryDy=0;" edge="1" parent="1" source="gMwRSMizLsDUqZksZM7D-1" target="gMwRSMizLsDUqZksZM7D-3">
          <mxGeometry relative="1" as="geometry" />
        </mxCell>
        <mxCell id="gMwRSMizLsDUqZksZM7D-1" value="" style="rounded=0;whiteSpace=wrap;html=1;" vertex="1" parent="1">
          <mxGeometry x="95" y="182.5" width="120" height="65" as="geometry" />
        </mxCell>
        <mxCell id="gMwRSMizLsDUqZksZM7D-2" value="" style="verticalLabelPosition=bottom;html=1;verticalAlign=top;align=center;strokeColor=none;fillColor=#00BEF2;shape=mxgraph.azure.github_code;pointerEvents=1;" vertex="1" parent="1">
          <mxGeometry x="130" y="192.5" width="50" height="50" as="geometry" />
        </mxCell>
        <mxCell id="gMwRSMizLsDUqZksZM7D-14" style="edgeStyle=orthogonalEdgeStyle;rounded=0;orthogonalLoop=1;jettySize=auto;html=1;" edge="1" parent="1" source="gMwRSMizLsDUqZksZM7D-3" target="gMwRSMizLsDUqZksZM7D-13">
          <mxGeometry relative="1" as="geometry" />
        </mxCell>
        <mxCell id="gMwRSMizLsDUqZksZM7D-3" value="" style="rounded=0;whiteSpace=wrap;html=1;" vertex="1" parent="1">
          <mxGeometry x="310" y="120" width="350" height="190" as="geometry" />
        </mxCell>
        <mxCell id="gMwRSMizLsDUqZksZM7D-4" value="" style="verticalLabelPosition=bottom;html=1;verticalAlign=top;align=center;strokeColor=#82b366;fillColor=#d5e8d4;shape=mxgraph.azure.github_code;pointerEvents=1;gradientColor=#97d077;" vertex="1" parent="1">
          <mxGeometry x="345" y="130" width="50" height="50" as="geometry" />
        </mxCell>
        <mxCell id="gMwRSMizLsDUqZksZM7D-6" value="&lt;b&gt;Runner&lt;/b&gt;" style="text;html=1;align=center;verticalAlign=middle;resizable=0;points=[];autosize=1;strokeColor=none;fillColor=none;" vertex="1" parent="1">
          <mxGeometry x="335" y="110" width="70" height="30" as="geometry" />
        </mxCell>
        <mxCell id="gMwRSMizLsDUqZksZM7D-12" style="edgeStyle=orthogonalEdgeStyle;rounded=0;orthogonalLoop=1;jettySize=auto;html=1;entryX=0;entryY=0.25;entryDx=0;entryDy=0;" edge="1" parent="1" source="gMwRSMizLsDUqZksZM7D-7" target="gMwRSMizLsDUqZksZM7D-10">
          <mxGeometry relative="1" as="geometry">
            <Array as="points">
              <mxPoint x="410" y="155" />
            </Array>
          </mxGeometry>
        </mxCell>
        <mxCell id="gMwRSMizLsDUqZksZM7D-7" value="" style="rounded=0;whiteSpace=wrap;html=1;fillColor=#dae8fc;gradientColor=#7ea6e0;strokeColor=#6c8ebf;" vertex="1" parent="1">
          <mxGeometry x="330" y="210" width="120" height="60" as="geometry" />
        </mxCell>
        <mxCell id="gMwRSMizLsDUqZksZM7D-9" value="&lt;b&gt;ci-cd.yaml&lt;/b&gt;" style="text;html=1;align=center;verticalAlign=middle;resizable=0;points=[];autosize=1;strokeColor=none;fillColor=none;" vertex="1" parent="1">
          <mxGeometry x="330" y="217.5" width="80" height="30" as="geometry" />
        </mxCell>
        <mxCell id="gMwRSMizLsDUqZksZM7D-10" value="&lt;b&gt;Reusable Workflow&lt;/b&gt;" style="rounded=0;whiteSpace=wrap;html=1;fillColor=#f8cecc;gradientColor=#ea6b66;strokeColor=#b85450;" vertex="1" parent="1">
          <mxGeometry x="510" y="140" width="120" height="60" as="geometry" />
        </mxCell>
        <mxCell id="gMwRSMizLsDUqZksZM7D-13" value="Amazon EKS" style="sketch=0;outlineConnect=0;fontColor=#232F3E;gradientColor=none;strokeColor=#ffffff;fillColor=#232F3E;dashed=0;verticalLabelPosition=middle;verticalAlign=bottom;align=center;html=1;whiteSpace=wrap;fontSize=10;fontStyle=1;spacing=3;shape=mxgraph.aws4.productIcon;prIcon=mxgraph.aws4.eks;" vertex="1" parent="1">
          <mxGeometry x="750" y="165" width="80" height="100" as="geometry" />
        </mxCell>
      </root>
    </mxGraphModel>
  </diagram>
</mxfile>
